<?xml version="1.0" encoding="UTF-8" standalone="no"?>
<svg
   xmlns:dc="http://purl.org/dc/elements/1.1/"
   xmlns:cc="http://creativecommons.org/ns#"
   xmlns:rdf="http://www.w3.org/1999/02/22-rdf-syntax-ns#"
   xmlns:svg="http://www.w3.org/2000/svg"
   xmlns="http://www.w3.org/2000/svg"
   id="svg8"
   version="1.1"
   viewBox="0 0 254 253.99999"
   height="253.99998mm"
   width="254mm">
  <defs
     id="defs2" />
  <metadata
     id="metadata5">
    <rdf:RDF>
      <cc:Work
         rdf:about="">
        <dc:format>image/svg+xml</dc:format>
        <dc:type
           rdf:resource="http://purl.org/dc/dcmitype/StillImage" />
        <dc:title></dc:title>
      </cc:Work>
    </rdf:RDF>
  </metadata>
  <g
     transform="translate(23.819852,34.566234)"
     id="layer1">
    <path
       id="path852"
       d="m 27.33504,219.21431 c -1.50527,-0.5887 -1.52114,-0.79561 -1.52114,-19.829 0,-20.36533 -0.12994,-19.30598 2.42402,-19.76195 1.98959,-0.35523 3.55926,0.34726 4.04435,1.80999 0.23964,0.72264 0.51168,1.31391 0.60453,1.31391 0.0928,0 0.83304,-0.43745 1.64488,-0.9721 3.32729,-2.19126 8.90233,-2.79462 12.00613,-1.29935 4.64892,2.23964 7.14707,8.72376 6.22101,16.14697 -1.20716,9.67644 -8.8032,13.75056 -17.51681,9.39509 l -1.82244,-0.91094 v 6.34568 c 0,7.60961 -0.0414,7.709 -3.27638,7.87201 -1.23076,0.0621 -2.49442,0.0129 -2.80815,-0.11031 z m 15.21135,-18.58596 c 1.95846,-0.97363 3.04228,-3.34577 3.04228,-6.65854 0,-1.44082 -0.19567,-3.26958 -0.4348,-4.06393 -1.11683,-3.70961 -5.34835,-5.03656 -9.47802,-2.97219 -2.23987,1.11969 -2.28857,1.27687 -2.1722,7.01057 l 0.10602,5.22712 2.03992,1.05992 c 2.4028,1.24846 4.89549,1.39196 6.89677,0.39705 z m 54.38065,18.33864 -0.95071,-0.47858 -0.10534,-18.34365 c -0.0579,-10.08898 -0.0144,-18.71916 0.098,-19.17815 0.24236,-0.9942 2.36955,-1.70399 4.08404,-1.36274 0.99981,0.199 2.22017,1.5285 2.6989,2.94028 0.068,0.20051 0.59625,-0.006 1.17392,-0.45763 3.08367,-2.4139 9.13039,-3.18663 12.52178,-1.60018 2.23303,1.04457 4.17375,3.25832 5.27349,6.01537 1.18709,2.97602 1.25296,10.91455 0.11642,14.03262 -0.97651,2.67908 -4.25871,6.0729 -6.51083,6.73227 -3.01953,0.88401 -7.91724,0.2184 -10.61871,-1.44316 -0.65969,-0.40574 -1.31125,-0.62643 -1.44792,-0.49042 -0.13669,0.13602 -0.2485,3.10436 -0.2485,6.59636 0,6.13196 -0.0288,6.36923 -0.84517,6.93822 -1.01659,0.70861 -3.91976,0.76367 -5.23935,0.0994 z m 15.57837,-18.37273 c 2.08342,-1.11195 2.86542,-3.03902 2.86542,-7.06122 0,-3.74726 -0.57943,-5.27753 -2.55237,-6.74098 -2.05799,-1.52653 -6.52246,-0.84637 -8.95124,1.36371 -0.79549,0.72386 -0.85564,1.0949 -0.85564,5.27889 0,2.49746 0.18269,4.84002 0.41053,5.26365 0.59978,1.1153 4.0394,2.58486 6.06024,2.58922 0.94849,0.001 2.30179,-0.3083 3.02306,-0.69327 z m -47.52225,6.53173 c -1.95223,-0.69206 -4.26467,-2.74087 -5.12133,-4.53744 -0.8007,-1.67921 -0.73202,-5.28617 0.13683,-7.19005 0.9037,-1.98008 3.15088,-3.81945 5.52882,-4.52547 2.88529,-0.85666 8.61686,-0.6428 11.39599,0.4252 0.66212,0.25445 0.70519,0.12916 0.51939,-1.51118 -0.24064,-2.12494 -1.34897,-3.47001 -3.30469,-4.01067 -2.90897,-0.80419 -7.27968,-0.26392 -10.9723,1.35631 -2.27018,0.99609 -2.95244,0.8974 -3.29913,-0.47722 -0.85428,-3.38729 3.17191,-6.16624 9.99283,-6.89723 6.14282,-0.6583 10.95893,0.62777 13.03585,3.48105 1.62038,2.22604 1.89763,3.6002 2.13347,10.5746 0.13541,4.00365 0.37269,6.46686 0.64461,6.69143 0.23667,0.19547 1.19702,0.40969 2.13413,0.47605 l 1.70383,0.12057 0.11498,1.98663 c 0.0994,1.71679 -0.0151,2.10653 -0.84277,2.86988 -1.17179,1.0807 -4.62265,1.90219 -6.51028,1.54978 -0.83553,-0.15599 -1.8562,-0.74495 -2.55175,-1.4724 l -1.15923,-1.21245 -2.61364,1.33448 c -2.30031,1.17454 -3.0117,1.3489 -5.93399,1.45463 -2.3438,0.0848 -3.82363,-0.0584 -5.03163,-0.48655 z m 10.18294,-6.11083 c 1.55766,-0.72098 2.81581,-2.27376 2.66857,-3.29347 -0.17629,-1.22083 -2.00058,-1.83064 -5.61349,-1.87646 -2.53699,-0.0322 -3.50464,0.10857 -4.2992,0.62556 -2.12597,1.38316 -1.63938,4.21022 0.87687,5.09441 1.54936,0.54443 4.56571,0.28387 6.36725,-0.55004 z m 64.06,6.14716 c -2.7246,-0.76291 -4.05512,-1.49488 -6.05945,-3.33348 -5.5022,-5.04727 -5.62449,-15.6107 -0.24054,-20.77906 4.58459,-4.40103 14.50513,-4.65817 19.44402,-0.504 1.68778,1.41961 2.63423,3.38966 3.16495,6.58785 0.38183,2.30085 0.35966,2.79332 -0.16139,3.5847 -1.46867,2.23064 -7.1476,3.72503 -14.23862,3.74685 -5.08497,0.0156 -5.2567,0.10613 -4.05194,2.13581 1.33991,2.25737 5.12786,3.70056 8.48319,3.23209 0.96161,-0.1343 2.99808,-0.66507 4.52553,-1.17961 3.32739,-1.12088 3.87782,-0.88691 3.87782,1.64828 0,1.3199 -0.21071,1.86906 -0.9944,2.59187 -2.50015,2.30586 -9.49464,3.46 -13.74917,2.2687 z m 8.75409,-16.79682 c 2.27286,-0.88889 0.51758,-4.09159 -2.71759,-4.95852 -1.76372,-0.47264 -4.5977,-0.20274 -6.16262,0.58689 -1.62667,0.82079 -3.0775,3.66342 -2.41456,4.73089 0.34813,0.56058 9.70367,0.26299 11.29477,-0.35926 z m 14.83107,16.79623 -0.85563,-0.61516 v -13.02169 c 0,-14.82414 -0.24918,-13.80521 3.37599,-13.80521 2.13613,0 2.89481,0.66737 3.31944,2.91994 0.27843,1.47693 0.50818,1.52846 1.61011,0.36118 1.21697,-1.28915 3.87154,-2.49677 6.5019,-2.95788 3.10971,-0.54512 3.44633,-0.36527 3.44561,1.84097 -8e-4,2.58255 -0.99737,4.3633 -2.66141,4.75586 -3.58646,0.84607 -5.35107,1.50759 -6.79159,2.54607 l -1.57466,1.13517 v 8.08791 c 0,9.28377 0.10465,8.99645 -3.35948,9.22552 -1.5638,0.10345 -2.38927,-0.0262 -3.01028,-0.47268 z M 59.2789,126.8694 C 20.25697,108.60957 -5.0353305,96.894016 -10.16573,94.7022 c -3.70059,-1.580967 -4.03789,-1.850829 -3.71442,-2.971723 0.34136,-1.182841 2.01887,-3.608687 2.66647,-3.855993 1.3782195,-0.52632 6.8783595,1.941605 65.92918,29.582676 31.43828,14.71593 39.48836,18.34384 40.00019,18.02682 7.52526,-4.66101 92.84028,-56.397869 101.27536,-61.415544 16.88872,-10.04637 23.32819,-13.51398 25.16466,-13.55095 0.76201,-0.01532 2.78624,1.913196 2.78624,2.654532 0,1.143863 -0.24194,1.299554 -36.69742,23.61473 -10.45781,6.401451 -19.61317,12.026431 -20.34521,12.499951 -1.20364,0.778571 -68.59437,41.767511 -71.30327,43.368671 l -1.14086,0.67432 z m 29.47203,1.7954 c -3.60305,-1.46 -43.4005,-18.54458 -63.12717,-27.09975 -28.7011105,-12.447244 -40.33027,-17.846866 -40.74321,-18.917799 -0.11571,-0.300061 0.10545,-1.189061 0.49163,-1.975564 1.40275,-2.857402 2.07534,-2.632485 37.42652,12.515543 22.25127,9.5347 42.43001,18.20402 59.54327,25.58138 l 10.70383,4.61431 13.25407,-7.8383 c 7.28974,-4.31106 20.86927,-12.35205 30.17671,-17.868845 54.72259,-32.435659 61.84271,-36.64917 64.07788,-37.91967 14.15207,-8.04418 20.9308,-11.527438 23.29098,-11.968068 1.1425,-0.213301 1.48508,-0.11413 2.06417,0.597562 1.01475,1.2471 0.85913,2.060829 -0.64547,3.37552 -3.07909,2.690418 -6.68893,4.89781 -48.47742,29.643718 -8.26169,4.892312 -28.02695,16.609862 -43.92284,26.038993 -15.89587,9.42913 -30.88265,18.30866 -33.30396,19.73228 -5.23278,3.07665 -6.46972,3.24701 -10.80899,1.48869 z m 1.33099,-13.4921 C 80.45538,111.75741 63.07555,104.989 23.5322,89.255524 l -40.50027,-16.114209 0.11829,-1.869639 c 0.065,-1.028303 0.15058,-2.550848 0.19013,-3.383436 l 0.0719,-1.513792 -3.48612,-1.703208 c -1.91737,-0.936768 -3.60152,-1.818039 -3.74255,-1.958382 -0.141,-0.140348 4.08023,-2.369265 9.38055,-4.953154 5.3003095,-2.583894 10.0616395,-5.048525 10.5807395,-5.476967 l 0.9438,-0.778986 -1.42898,-0.83905 c -1.71666,-1.00797 -2.16989,-1.76344 -2.16989,-3.616936 0,-0.770086 -0.19084,-2.03404 -0.42409,-2.808795 -0.78046,-2.592335 0.29212,-4.092448 15.24758,-21.325335 L 18.38321,11.310237 l 6.8527,-0.01611 c 10.28695,-0.02418 27.72019,-0.646144 31.38106,-1.119592 8.49359,-1.0984499 16.24,-3.9854819 18.0379,-6.7226049 1.71288,-2.60769896 2.66162,-7.225366 2.66199,-12.956345 2.7e-4,-4.6345211 -0.16626,-5.9001311 -1.79339,-13.6264511 -0.98655,-4.684548 -1.79373,-9.173928 -1.79373,-9.976368 v -1.459 l 1.42607,0.25371 c 3.44801,0.61339 15.64871,3.59396 31.84882,7.78053 22.39346,5.7871 77.40197,20.3215501 77.57945,20.4981961 0.0744,0.07414 0.30973,4.457912 0.52281,9.741789 0.21308,5.283885 0.52452,9.7340479 0.69213,9.8892519 0.16759,0.155205 10.05898,2.435911 21.9809,5.068237 11.92191,2.632326 21.99409,4.913225 22.38263,5.068663 0.53922,0.215714 -11.20794,7.397054 -49.62708,30.338268 C 123.26106,88.272674 98.21482,103.14535 94.64539,105.07472 L 92.17354,106.4108 49.39157,90.423832 C 2.9107095,73.054653 -5.7744205,69.868194 -6.0064605,70.099094 c -0.24752,0.246329 23.8470405,9.932527 64.1445305,25.786564 7.00673,2.756625 18.02673,7.092572 24.4889,9.635452 6.46217,2.54288 12.04827,4.54563 12.41356,4.45057 0.36528,-0.0951 10.05175,-5.95936 21.52546,-13.031764 52.28436,-32.228078 106.59906,-65.193476 107.41458,-65.193476 0.55051,0 2.24308,2.516145 2.24308,3.334531 0,2.06352 -6.59191,6.558748 -34.63412,23.618105 -3.22639,1.962751 -19.89863,12.169513 -37.04944,22.681692 -43.14703,26.445922 -58.36811,35.549932 -59.34855,35.497452 -0.19583,-0.01 -2.49515,-0.77797 -5.10961,-1.70552 z m 19.81021,-26.601777 c 48.81378,-28.723862 102.193,-60.813622 102.3652,-61.538445 0.0473,-0.198993 -0.68413,-0.584528 -1.62533,-0.856748 -2.16582,-0.626401 -23.7336,-5.466805 -25.36556,-5.692722 -1.51573,-0.20983 -2.44036,0.707676 -5.05602,5.017122 -5.27599,8.692499 -15.64182,18.818434 -27.00133,26.376448 -2.19614,1.461193 -7.13897,4.197379 -10.98405,6.080408 l -6.99107,3.423695 -4.22731,-0.662866 c -9.8605,-1.546188 -13.39955,-2.067954 -14.13712,-2.08425 -0.54888,-0.01217 -2.7236,2.160773 -7.27388,7.267821 C 104.77525,71.311597 94.50728,83.133061 93.32112,84.638172 93.06667,84.961046 73.6894,78.321123 30.70779,63.182758 L 6.8902495,54.794074 -0.19028048,58.296353 c -3.89431002,1.926252 -7.08022002,3.59518 -7.07978002,3.708723 10e-4,0.295053 0.51511,0.491361 41.8304905,15.975201 42.8644,16.064357 55.68174,20.721478 57.07807,20.739073 0.62319,0.0071 7.34128,-3.727191 18.25363,-10.148427 z m -16.2983,-15.10057 c 3.5714,-3.464142 9.59153,-10.064536 14.34214,-15.724568 1.88966,-2.251382 2.67034,-3.454744 2.40961,-3.714216 C 109.76716,53.455947 23.37295,16.98696 22.58773,16.98696 c -0.692,0 -20.0513005,22.179082 -22.90033048,26.235872 -1.23166002,1.753785 -1.42658002,1.592151 4.45030998,3.690234 19.3098105,6.893705 29.2057305,10.36651 59.5144705,20.885586 22.7274,7.88787 25.72054,8.910958 26.19349,8.953241 0.1838,0.01643 1.87048,-1.460262 3.74816,-3.28154 z m 43.68196,-20.714711 c 14.6157,-5.617337 30.58958,-19.14907 38.44964,-32.571295 2.92182,-4.989441 3.11805,-5.962317 2.80931,-13.9270379 -0.14645,-3.777506 -0.38575,-6.98255496 -0.53179,-7.12234996 C 177.72649,-1.1296639 112.17221,-18.449397 92.95452,-23.335217 c -6.05429,-1.53919 -11.09684,-2.70994 -11.20569,-2.60161 -0.18401,0.1831 0.13812,2.23367 1.71886,10.94491 0.87821,4.839444 0.53897,10.7241751 -0.96588,16.7539531 -0.63741,2.55398 -1.44363,5.076015 -1.7916,5.604528 -1.83702,2.7901139 -9.4142,6.7691029 -13.98979,7.3464299 -1.6583,0.209235 -4.22496,0.716179 -5.70366,1.126535 -3.61297,1.00263 -8.57187,1.746104 -16.56632,2.483731 -3.6588,0.337589 -6.71097,0.672131 -6.78262,0.743431 -0.22594,0.224851 0.75732,0.65178 24.8435,10.786996 38.66601,16.270264 51.95714,21.288055 61.03561,23.042727 2.19614,0.424468 4.33523,0.843513 4.75355,0.931212 2.68403,0.562715 5.64089,0.209555 8.97531,-1.071984 z"
       style="fill:#000000;stroke-width:0.37936506" />
  </g>
</svg>
