<?xml version="1.0" encoding="UTF-8" standalone="no"?>
<svg
   xmlns:dc="http://purl.org/dc/elements/1.1/"
   xmlns:cc="http://creativecommons.org/ns#"
   xmlns:rdf="http://www.w3.org/1999/02/22-rdf-syntax-ns#"
   xmlns:svg="http://www.w3.org/2000/svg"
   xmlns="http://www.w3.org/2000/svg"
   id="svg8"
   version="1.1"
   viewBox="0 0 254 254.00052"
   height="254.00052mm"
   width="254mm">
  <defs
     id="defs2" />
  <metadata
     id="metadata5">
    <rdf:RDF>
      <cc:Work
         rdf:about="">
        <dc:format>image/svg+xml</dc:format>
        <dc:type
           rdf:resource="http://purl.org/dc/dcmitype/StillImage" />
        <dc:title></dc:title>
      </cc:Work>
    </rdf:RDF>
  </metadata>
  <g
     transform="translate(24.575805,32.298647)"
     id="layer1">
    <path
       id="path865"
       d="m 41.688287,221.45851 c -0.51757,-0.12444 -1.25865,-0.39624 -1.64683,-0.604 l -0.70576,-0.37776 v -14.98077 -14.98075 l 0.8626,-0.43914 c 1.40115,-0.71329 2.76575,-0.88742 4.1159,-0.52525 1.71752,0.46074 2.07231,0.89422 2.54389,3.10806 l 0.40453,1.89899 1.13382,-1.01911 c 2.44751,-2.19994 5.49524,-3.50005 9.057,-3.86359 1.78054,-0.18174 2.10861,-0.1331 2.47567,0.36698 0.89667,1.22166 0.33987,4.76475 -0.99767,6.34836 -0.61581,0.72906 -1.11931,0.95438 -2.5233,1.12913 -3.25695,0.4054 -5.87288,1.56063 -8.05417,3.55685 l -0.86261,0.78941 v 9.11173 c 0,10.21661 0.10387,9.75661 -2.35261,10.42577 -1.39153,0.37909 -2.0585,0.38973 -3.45046,0.0551 z m 36.07314,0.0871 c -5.10995,-0.81394 -8.99737,-3.11913 -10.99948,-6.52259 -2.79972,-4.75932 -3.07623,-12.51915 -0.6354,-17.83053 2.26123,-4.92054 7.69139,-7.9325 14.30117,-7.9325 8.16826,0 13.64418,3.86416 15.54194,10.9674 0.66057,2.47251 0.5967,8.3722 -0.11844,10.94159 -1.33084,4.78133 -4.64682,8.18435 -9.40137,9.64823 -1.96105,0.60376 -6.88118,1.01628 -8.68839,0.7284 z m 6.43044,-7.08638 c 2.90132,-1.44987 4.27819,-4.9049 4.00669,-10.05407 -0.30663,-5.81553 -3.07615,-8.90614 -7.98092,-8.90614 -3.15182,0 -5.59209,1.88381 -6.88175,5.31244 -0.77165,2.0515 -0.76891,7.12523 0.005,9.35662 0.78825,2.27258 3.0245,4.5293 4.92778,4.97292 1.87366,0.4367 4.22699,0.16584 5.92312,-0.68177 z m 29.340243,6.95997 c -2.70755,-0.41937 -4.5851,-1.11012 -6.67456,-2.4555 -4.17003,-2.68504 -6.34345,-7.29842 -6.34345,-13.4648 0,-10.15244 6.09931,-16.22102 16.32654,-16.24436 3.17798,-0.007 5.51851,0.49756 7.89019,1.70167 2.63853,1.33961 3.37616,2.44914 3.37616,5.07833 0,2.12302 -0.36803,3.21445 -1.08393,3.21445 -0.23897,0 -1.39853,-0.4826 -2.57681,-1.07241 -6.25086,-3.12909 -12.73428,-1.81478 -14.85773,3.01188 -1.08102,2.45724 -1.0469,6.30877 0.0774,8.74184 1.49775,3.24104 4.34789,4.52689 9.44355,4.26042 2.30055,-0.12027 3.02012,-0.30526 5.0225,-1.29116 1.28548,-0.6329 2.5596,-1.15074 2.83139,-1.15074 1.22043,0 1.65919,3.66899 0.68325,5.71346 -1.35407,2.83662 -8.46938,4.83135 -14.11456,3.95692 z m 24.76947,0.17589 c -0.17252,-0.0574 -0.69199,-0.18709 -1.15435,-0.28829 -1.92861,-0.42225 -1.8256,0.81423 -1.8256,-21.91303 v -20.7477 l 0.95502,-1.08357 c 1.79708,-2.03904 5.75328,-3.38003 6.82424,-2.31312 0.28158,0.28053 0.37641,3.90776 0.37641,14.39748 v 14.02247 l 0.86261,-0.66971 c 2.29801,-1.78411 6.71197,-6.066 9.36588,-9.08564 3.3689,-3.83317 4.32806,-4.35231 8.04142,-4.35231 2.45186,0 3.37398,0.35554 3.37398,1.30096 0,0.83675 -3.44541,4.92452 -8.54317,10.13605 -2.20221,2.25135 -4.00402,4.16531 -4.00402,4.25328 0,0.088 0.96546,1.6217 2.14547,3.40829 3.23919,4.90435 4.94941,6.08233 7.72294,5.31939 1.05075,-0.28903 1.25047,-0.24463 1.92557,0.42788 0.59994,0.59767 0.75321,1.07752 0.75321,2.35798 0,3.34882 -1.55824,4.67073 -5.50582,4.67073 -3.79567,0 -5.33299,-1.18342 -9.5632,-7.36176 -1.58185,-2.31034 -2.98985,-4.20057 -3.12891,-4.20057 -0.13906,0 -0.97128,0.56575 -1.8494,1.25725 l -1.59656,1.25723 v 3.85051 c 0,3.27362 -0.0823,3.9233 -0.54894,4.33661 -0.89149,0.78945 -3.55386,1.37619 -4.62678,1.01963 z m -18.03657,-72.67951 c -8.05085,-0.13792 -13.94433,-0.37012 -14.87886,-0.58626 -2.55667,-0.59127 -23.735043,-0.93493 -58.235813,-0.94504 l -32.49317,-0.01 -5.6332903,-2.27195 c -7.26533,-2.93014 -9.98709003,-4.48933 -12.53639,-7.18152 -3.49156,-3.68726 -5.39625,-8.30765 -8.7918597,-21.3273 -2.61218,-10.01575 -5.30805,-19.660282 -9.09438,-32.535412 -1.66215,-5.652058 -3.08903,-10.514168 -3.17085,-10.80471 -0.21345,-0.758089 5.13592,-6.16749 7.88009,-7.968538 4.41748,-2.89928 9.5378197,-4.929791 19.9252697,-7.901572 15.1364603,-4.330409 19.0464703,-6.754149 20.9336203,-12.97622 0.88054,-2.903199 0.71142,-9.521769 -0.4763,-18.63974 -1.84533,-14.166641 -1.96779,-20.6484014 -0.42968,-22.7470194 1.16628,-1.59137 5.77841,-3.39318003 24.69847,-9.64893 25.85529,-8.5487996 29.31332,-9.9703796 40.39688,-16.6067896 8.25696,-4.94395 13.500383,-7.322 18.641463,-8.45447 5.22768,-1.15152 7.91728,-0.75975 13.42164,1.9549 5.34911,2.63811 5.7023,3.39019 8.47644,18.04911 1.76832,9.3440296 2.55285,12.7600396 3.13322,13.6426296 1.11833,1.70066 8.41933,2.875098 25.87504,4.162269 15.75031,1.16141 19.0849,1.932221 22.62357,5.2297494 3.59369,3.348811 4.93389,7.69538 7.49504,24.308412 2.64078,17.129469 4.04857,21.819391 7.74289,25.794628 2.48086,2.669511 6.61965,4.282012 21.71495,8.460373 4.41183,1.221179 8.1868,2.380448 8.38885,2.576139 0.47146,0.456671 2.76706,9.602391 3.21285,12.80014 0.9513,6.823691 -0.0371,13.267379 -3.72089,24.256161 -3.02122,9.0125 -4.63701,11.97059 -10.0806,18.455 -5.19641,6.18996 -7.32629,9.79477 -10.20114,17.26539 l -1.53325,3.9843 -34.97622,-0.0529 c -19.23691,-0.029 -40.97532,-0.15562 -48.30759,-0.28125 z m 78.0938,-10.21254 c 2.02907,-5.61573 3.54706,-8.04627 8.4898,-13.5935 2.67059,-2.99723 4.96012,-6.27258 6.48765,-9.28108 2.70347,-5.32458 6.64273,-17.198873 7.39051,-22.277501 0.56914,-3.865369 -0.65052,-10.155499 -2.78522,-14.364121 -0.71403,-1.407739 -0.84894,-1.502619 -3.17864,-2.235329 -1.33813,-0.42087 -4.40913,-1.27939 -6.82447,-1.907831 -8.78276,-2.28518 -12.3553,-3.68544 -16.03473,-6.284759 -6.7875,-4.79501 -9.74407,-11.989009 -12.36923,-30.09709 -0.51362,-3.542901 -1.14047,-7.566631 -1.39299,-8.94162 -1.41078,-7.681521 -3.49396,-13.25303 -5.33516,-14.269091 -1.28953,-0.711649 -5.74479,-1.387599 -13.0177,-1.975059 -7.09428,-0.573032 -15.65381,-1.44036 -24.82683,-2.515661 l -6.47659,-0.75919 -9.36423,6.28981 c -5.15032,3.459401 -9.60899,6.355289 -9.90814,6.43532 -1.0185,0.272471 -2.17416,-0.260508 -3.76074,-1.734341 C 103.51878,19.396019 93.286387,7.8632576 93.294107,7.4889276 c 0.005,-0.224319 6.15889,-4.446379 6.904433,-4.736729 0.13191,-0.0513 1.45171,1.42518 2.9329,3.281198 3.39161,4.2499204 4.53279,5.5131524 5.56377,6.1588704 0.79246,0.496282 0.89446,0.47484 2.97996,-0.626348 3.16869,-1.6731724 7.95693,-4.8998724 9.2172,-6.2113324 1.08182,-1.125748 1.09726,-1.179888 1.05611,-3.700698 -0.11157,-6.83387 -3.22301,-20.3640296 -5.45502,-23.7210096 -1.31064,-1.97125 -2.06859,-2.27674 -5.60951,-2.261 -4.61553,0.0204 -8.36656,1.54509 -17.173793,6.98013 -11.66575,7.19908 -21.60342,11.1416296 -51.70819,20.5141596 -7.30603,2.27459 -9.80268,3.486649 -10.68564,5.187629 -0.65001,1.252299 -0.55947,4.1391394 0.32898,10.4877104 2.19224,15.664971 2.31361,26.566921 0.33818,30.372579 -0.67966,1.309323 -0.61794,2.141932 0.17741,2.393392 0.92704,0.29314 4.19342,0.006 18.46725,-1.623721 6.8147,-0.778029 13.58577,-1.436921 15.04682,-1.464199 l 2.6565,-0.0496 1.0147,1.680663 c 1.41874,2.349838 2.84389,5.850678 5.24569,12.885758 3.06514,8.97808 3.07857,9.964481 0.13563,9.964481 -3.06833,0 -3.812,-0.919591 -6.08141,-7.520119 -1.25281,-3.643742 -4.13893,-11.219662 -4.37382,-11.48102 -0.1359,-0.151231 -22.02291,2.379059 -28.07336,3.245488 -9.78304,1.400971 -15.92213,2.789031 -26.3491003,5.957681 -11.2917,3.43146 -15.45345,4.83018 -17.70635,5.950979 -2.4044097,1.196181 -7.3854897,4.577241 -7.3868197,5.014042 -6.6e-4,0.21222 1.27907,4.501219 2.84384,9.531109 3.8337097,12.323439 6.9619897,23.387599 8.1335197,28.766849 2.78677,12.79594 4.80506997,17.84556 8.53643,21.35756 3.0479,2.86872 6.4682403,4.31046 12.6371803,5.32675 3.19558,0.52647 5.60549,0.56102 32.62267,0.46781 23.31579,-0.0804 30.80948,-0.005 37.32787,0.37537 4.48561,0.2618 10.83762,0.57343 14.115573,0.69252 6.74987,0.24519 47.31585,0.61314 76.74342,0.69609 l 19.65372,0.0554 z"
       style="fill:#000000;stroke-width:0.31308696" />
  </g>
</svg>
