<?xml version="1.0" encoding="UTF-8" standalone="no"?>
<svg
   xmlns:dc="http://purl.org/dc/elements/1.1/"
   xmlns:cc="http://creativecommons.org/ns#"
   xmlns:rdf="http://www.w3.org/1999/02/22-rdf-syntax-ns#"
   xmlns:svg="http://www.w3.org/2000/svg"
   xmlns="http://www.w3.org/2000/svg"
   id="svg8"
   version="1.1"
   viewBox="0 0 254.00002 253.99994"
   height="253.99994mm"
   width="254.00002mm">
  <defs
     id="defs2" />
  <metadata
     id="metadata5">
    <rdf:RDF>
      <cc:Work
         rdf:about="">
        <dc:format>image/svg+xml</dc:format>
        <dc:type
           rdf:resource="http://purl.org/dc/dcmitype/StillImage" />
        <dc:title></dc:title>
      </cc:Work>
    </rdf:RDF>
  </metadata>
  <g
     transform="translate(27.441077,35.957588)"
     id="layer1">
    <path
       id="path878"
       d="m 3.6953826,217.68987 c -3.66076998,-0.48426 -6.79781,-1.57954 -7.47888,-2.61117 -0.71946,-1.08983 -0.84727,-3.79966 -0.20908,-4.43307 0.35679,-0.35412 1.19078,-0.22203 3.61143002,0.57202 5.50844998,1.80692 11.85612038,1.18812 12.46383038,-1.21504 0.51024,-2.01776 0.28283,-2.11918 -9.3742004,-4.18093 -5.00381,-1.0683 -7.15089,-3.04671 -7.15089,-6.58913 0,-2.99863 1.33526,-4.86127 4.64368002,-6.47781 2.04411998,-0.99877 3.19183998,-1.28306 5.84220998,-1.44718 3.69443,-0.22876 7.6377104,0.32524 10.2620904,1.44175 1.4589,0.62068 1.82075,0.99322 2.1671,2.23114 0.53112,1.89834 0.52458,2.17272 -0.0706,2.96315 -0.45381,0.60261 -0.69806,0.57632 -3.23944,-0.34866 -6.0684304,-2.20872 -13.1025904,-1.35077 -12.6841904,1.5471 0.1665,1.15329 1.39569,1.62143 6.73018,2.56322 2.5563004,0.45129 5.3225804,1.16221 6.1472904,1.57978 5.12889,2.59698 5.08067,9.64492 -0.0864,12.614 -2.92798,1.68249 -7.2905304,2.35748 -11.5741504,1.79083 z m 31.8638204,0.0235 c -4.10844,-0.60719 -7.96941,-3.12152 -9.58631,-6.24278 -1.09006,-2.10425 -1.70395,-5.72299 -1.4266,-8.40969 0.75858,-7.34875 4.97665,-11.34319 12.42326,-11.7646 6.07848,-0.34398 10.08986,1.56585 10.45966,4.97988 0.12749,1.17638 0.003,1.99693 -0.382,2.50589 -0.56037,0.74209 -0.62001,0.73502 -3.07394,-0.36394 -1.89251,-0.84753 -3.12457,-1.12698 -5.05477,-1.14648 -5.16525,-0.0521 -7.62324,2.56109 -7.38006,7.84625 0.15298,3.3246 0.87078,4.5415 3.47645,5.8937 2.4145,1.25299 6.32064,1.04583 9.37464,-0.49719 2.02727,-1.02428 2.15913,-1.04298 2.65044,-0.37609 0.64955,0.88163 0.65648,2.78983 0.0148,4.04859 -1.33119,2.61109 -6.6496,4.24261 -11.49549,3.52644 z m 42.625325,-0.0275 c -2.9042,-0.33996 -6.16545,-1.34453 -7.13744,-2.19859 -0.76879,-0.67551 -1.28984,-3.22516 -0.905,-4.42856 0.30659,-0.95875 1.1896,-0.90272 4.11585,0.26122 1.30424,0.51875 2.86453,0.70705 5.95809,0.71902 3.65801,0.0147 4.33232,-0.0878 5.30092,-0.80178 0.61232,-0.45131 1.16451,-1.27112 1.23187,-1.82887 0.16734,-1.38571 -1.19812,-2.02608 -6.05671,-2.84044 -5.11176,-0.8568 -7.67955,-1.83648 -9.13974,-3.4871 -3.27392,-3.70084 -1.16538,-9.05411 4.31166,-10.94667 4.76356,-1.64605 14.62914,-0.61261 16.48306,1.72662 0.81728,1.0312 1.06331,4.1265 0.36217,4.55658 -0.21799,0.13374 -1.55229,-0.21585 -2.96508,-0.77683 -3.70552,-1.47133 -8.4016,-1.75751 -10.89277,-0.6638 -1.46915,0.64501 -1.84486,1.00311 -1.84486,1.75844 0,1.36599 0.72225,1.78683 4.18474,2.43837 8.29235,1.56041 10.48794,2.48016 11.76316,4.9277 0.83366,1.60003 0.84436,4.83132 0.0212,6.41114 -2.05676,3.94754 -7.87613,5.98299 -14.79115,5.17355 z m 29.485532,-0.004 c -3.57704,-0.47051 -6.68866,-1.5246 -7.30412,-2.47437 -0.864062,-1.33338 -1.092142,-3.4463 -0.463332,-4.29217 0.547402,-0.73634 0.619972,-0.73066 3.738482,0.29228 5.46543,1.79282 11.8874,1.20466 12.48109,-1.1431 0.53302,-2.10778 -0.18909,-2.5129 -6.44587,-3.61617 -5.18935,-0.91505 -7.1964,-1.69601 -8.68594,-3.37978 -2.091722,-2.36449 -1.910842,-6.14965 0.41111,-8.60271 1.54392,-1.63112 5.3092,-2.96057 8.95267,-3.16103 5.00195,-0.2752 10.68545,0.9895 11.70119,2.60377 0.7678,1.22024 0.98026,3.27897 0.41658,4.03669 -0.49489,0.66527 -0.65056,0.64962 -3.26135,-0.3278 -5.98611,-2.24103 -13.09747,-1.38542 -12.67722,1.52528 0.16651,1.15329 1.39569,1.62142 6.73018,2.56321 6.70328,1.18345 8.75617,2.44735 9.71492,5.98116 1.77072,6.52667 -5.51427,11.28297 -15.30839,9.99474 z m 31.57315,0.0268 c -4.45828,-0.6599 -7.42647,-2.74212 -9.30364,-6.52664 -1.17578,-2.37048 -1.2816,-2.89111 -1.28246,-6.31094 -10e-4,-4.66975 0.78694,-7.10404 3.14167,-9.70344 2.66896,-2.94627 4.89085,-3.76697 10.19306,-3.76497 3.74953,9.9e-4 4.56626,0.12314 6.1919,0.92316 2.50695,1.23369 4.5171,3.29461 5.7498,5.89503 0.90212,1.90305 1.01545,2.62424 1.01046,6.43036 -0.005,3.88859 -0.10685,4.49263 -1.09567,6.50122 -1.84164,3.74108 -4.98056,5.8855 -9.58138,6.54577 -1.46727,0.21058 -2.75613,0.36444 -2.86411,0.34195 -0.10804,-0.0225 -1.07981,-0.17168 -2.15963,-0.3315 z m 5.6997,-5.79622 c 4.23215,-2.25186 4.3989,-11.65973 0.25958,-14.64562 -1.5673,-1.13056 -5.27318,-1.11942 -6.81397,0.0205 -1.85637,1.37337 -2.60146,3.07768 -2.79482,6.39275 -0.18422,3.15835 0.30561,5.4609 1.44136,6.77529 1.89992,2.19884 5.32704,2.83031 7.90785,1.4571 z m 18.2183,5.78425 c -0.66673,-0.14037 -1.4177,-0.38127 -1.66881,-0.5353 -0.33123,-0.20318 -0.45654,-3.63024 -0.45654,-12.48545 0,-13.44696 -0.0984,-12.92372 2.50965,-13.34378 1.91092,-0.30776 3.23238,0.60945 3.77859,2.62274 l 0.42918,1.5819 1.42282,-1.2399 c 0.78255,-0.68193 1.96598,-1.46513 2.62986,-1.74043 1.88473,-0.7816 5.17132,-1.27422 5.87891,-0.88121 0.88578,0.492 0.81431,3.31476 -0.12258,4.83966 -0.61279,0.99742 -1.09066,1.26776 -2.64899,1.49854 -2.37394,0.35157 -4.06116,1.0398 -5.82777,2.37716 l -1.37447,1.0405 v 7.72511 c 0,5.27303 -0.13936,7.81057 -0.43898,7.99438 -0.85473,0.5243 -2.91472,0.79795 -4.11088,0.54608 z m 26.9675,-0.0268 c -3.55022,-0.45017 -6.68498,-1.50701 -7.30412,-2.46246 -0.86405,-1.33338 -1.09214,-3.44632 -0.46332,-4.29218 0.54739,-0.73633 0.61997,-0.73065 3.73847,0.2923 3.73682,1.22577 8.22806,1.41425 10.56888,0.44352 1.633,-0.67721 2.04796,-1.16359 2.05661,-2.41063 0.009,-1.2263 -1.54579,-1.90431 -6.12495,-2.67184 -6.97777,-1.16957 -9.96362,-2.92734 -10.58854,-6.23351 -0.91407,-4.8359 3.631,-8.63586 10.80106,-9.03034 5.00196,-0.2752 10.68546,0.9895 11.7012,2.60377 0.78537,1.24817 0.97996,3.27933 0.39016,4.07256 -0.5305,0.71344 -0.62033,0.705 -3.13951,-0.29529 -5.83573,-2.31717 -13.19633,-1.47759 -12.77265,1.4569 0.16405,1.13624 1.43875,1.64838 6.01043,2.41472 7.07631,1.18622 9.47386,2.5882 10.42568,6.09649 1.78195,6.56807 -5.40184,11.27104 -15.2994,10.01599 z m -134.762047,-1.05675 -1.33074,-1.17954 -0.11635,-10.5957 c -0.0977,-8.88393 -0.0215,-10.73932 0.47047,-11.48467 0.8168,-1.23725 3.93658,-2.67749 5.14683,-2.37601 l 0.96478,0.24033 0.10477,10.02948 0.10478,10.02946 0.98165,0.13478 c 1.45331,0.19952 1.96329,0.78271 1.96329,2.2451 0,0.88994 -0.35908,1.70902 -1.11961,2.55382 -0.97324,1.0811 -1.42809,1.26583 -3.47934,1.41308 -2.18696,0.15701 -2.45718,0.0831 -3.69047,-1.01013 z m -0.47894,-30.10144 c -1.14874,-0.89682 -1.84204,-2.87969 -1.54539,-4.41987 0.46208,-2.39914 4.20121,-3.81926 6.26975,-2.38126 1.07778,0.74925 1.82348,2.98141 1.49376,4.47136 -0.5895,2.66386 -4.10367,3.98053 -6.21812,2.32977 z m -66.81872,-39.13913 c -4.88196,-0.8946 -8.14602,-1.87193 -7.62416,-2.28285 0.0899,-0.0708 8.46837,-6.066 18.61863962,-13.32254 C 25.241283,113.05241 41.002913,101.28081 42.795013,99.106271 c 0.48868,-0.59294 0.38696,-0.6539 -1.09097,-0.6539 -3.68113,0 -23.84141,2.382079 -43.2295404,5.107899 -14.6050096,2.05335 -20.0295596,2.67894 -23.2651296,2.68308 -2.33845,0.003 -2.65045,-0.0834 -2.65045,-0.73318 0,-1.92189 8.01517,-10.578109 15.71298,-16.969699 9.2376296,-7.67012 17.0292596,-11.41478 35.7255,-17.16965 23.92893,-7.36554 66.503145,-18.82776 80.299047,-21.61885 8.52334,-1.7244 10.49919,-2.77054 16.52656,-8.75037 5.81061,-5.76475 12.37923,-13.33159 15.42134,-17.76486 5.54309,-8.07799 7.79358,-13.90231 9.86336,-25.52656 1.82606,-10.25546 5.71583,-18.34628 11.6534,-24.23937 6.1871,-6.14073 14.99036,-9.852967 22.26648,-9.389517 7.42214,0.47276 15.52963,6.943627 20.18701,16.111927 2.13824,4.20922 2.59911,6.42777 2.54606,12.25577 -0.10374,11.39503 -2.46933,20.30341 -7.20588,27.13615 -3.28454,4.73817 -9.05299,9.72423 -13.96519,12.07109 -6.77225,3.23552 -13.02521,3.67947 -19.55725,1.38854 -6.36658,-2.23292 -8.53721,-1.59841 -14.36061,4.19773 -7.0507,7.01766 -17.68169,20.00696 -19.84934,24.25258 -1.38683,2.71627 -1.1098,3.47781 1.72433,4.74017 5.54214,2.46853 22.73649,5.73531 30.03677,5.70674 5.75913,-0.0225 7.78702,-1.21383 12.25667,-7.20026 7.75553,-10.38736 15.3815,-14.63464 25.32043,-14.10221 7.17759,0.38448 12.6361,2.85898 18.52288,8.39691 3.52977,3.32059 5.96822,6.57041 8.10075,10.79617 1.94245,3.84911 2.47478,6.41945 2.69875,13.03104 0.17291,5.10416 0.0809,6.63385 -0.5936,9.86712 -1.93318,9.267179 -7.79024,16.974469 -16.16364,21.269669 -4.55882,2.33847 -6.96949,2.91791 -12.17247,2.92585 -4.04361,0.006 -4.87061,-0.11769 -7.91221,-1.18447 -6.7079,-2.35276 -12.93856,-6.7112 -16.26899,-11.38039 -4.75147,-6.661479 -11.04568,-11.306869 -17.4408,-12.872049 -9.41043,-2.30316 -27.99728,-3.61945 -31.80548,-2.25241 -1.12338,0.40327 -25.948482,14.246479 -58.113717,32.405949 -14.73378,8.31822 -32.52214,17.31161 -41.22933,20.8446 -5.67556,2.30288 -11.88068,4.03142 -17.4733804,4.86748 -4.78441,0.71524 -15.38029,0.72492 -19.2403496,0.0175 z M 9.7023826,139.17603 C 19.701153,136.47747 27.798643,133.2796 38.525853,127.79307 54.299763,119.72535 107.85122,90.322591 113.054,86.872941 c 3.64535,-2.41701 5.72017,-4.80904 6.48694,-7.47869 0.31869,-1.10959 0.48274,-3.49823 0.43086,-6.27358 -0.15651,-8.37303 1.28689,-13.67203 5.44331,-19.98331 2.76823,-4.20336 5.51148,-7.54802 13.84867,-16.88467 8.94483,-10.01719 11.17442,-12.74513 11.15139,-13.64392 -0.0104,-0.40483 -0.32126,-1.34985 -0.69085,-2.10007 -1.10158,-2.23603 -1.90262,-1.84284 -4.68946,2.30188 -6.83387,10.16366 -24.3902,29.01053 -30.72558,32.98416 -7.372,4.62383 -29.248112,20.7114 -56.150427,41.29271 -15.50031,11.858349 -25.83212,19.558439 -39.46235,29.410539 -11.9517704,8.63887 -18.41630038,13.70643 -17.89378038,14.02694 0.64141998,0.39344 4.75283998,-0.2297 8.89965998,-1.3489 z M 106.93319,83.944831 c -1.73591,-0.56837 -4.77861,-3.28212 -5.43911,-4.85108 -1.48239,-3.52126 0.66504,-9.89356 4.08317,-12.11642 0.62269,-0.40494 1.68626,-0.64613 2.68088,-0.60792 4.29652,0.16505 6.94222,3.73495 6.90973,9.32347 -0.0338,5.83251 -3.87329,9.67994 -8.23467,8.25195 z m 2.20126,-8.21676 c 0.17595,-0.9068 -0.61764,-1.84061 -1.33277,-1.56824 -0.57794,0.22011 -0.77258,1.73797 -0.28493,2.22197 0.47815,0.47459 1.4771,0.0709 1.6177,-0.65373 z m 95.10727,32.320349 c 7.8669,-2.71534 13.7267,-8.870079 15.48214,-16.261449 0.77571,-3.26612 0.76669,-9.78828 -0.0184,-13.32816 -1.69369,-7.63644 -6.67625,-14.23201 -13.12099,-17.36864 -7.33543,-3.57014 -14.20775,-3.58442 -21.22255,-0.0441 -2.69421,1.35975 -7.42453,6.33875 -9.13874,9.61916 -3.78024,7.23409 -4.04404,16.72442 -0.66951,24.08478 2.61287,5.698999 10.97168,12.439839 17.48401,14.099709 2.84457,0.72503 7.81098,0.36981 11.20405,-0.80133 z m -13.14798,-2.23554 c -7.75958,-2.64828 -12.91251,-9.617829 -14.76317,-19.967779 -1.57901,-8.83076 4.01119,-19.22797 12.43106,-23.12052 2.7618,-1.27679 3.43901,-1.43173 6.23934,-1.42738 7.17367,0.0118 15.62666,4.95098 18.38899,10.7463 2.47648,5.19565 3.66393,13.44192 2.63909,18.32711 -1.04177,4.9658 -5.0898,10.764279 -9.45617,13.545179 -4.31117,2.74573 -10.69878,3.52859 -15.47914,1.89709 z m 13.06846,-5.903249 c 5.6961,-3.39571 8.58581,-9.28288 8.22335,-16.75336 -0.1646,-3.39278 -0.3384,-4.1093 -1.62203,-6.68708 -3.06031,-6.14575 -10.30986,-10.52058 -16.21931,-9.78777 -2.85999,0.35465 -6.92493,2.45215 -9.85845,5.08694 -2.07516,1.86384 -2.53991,2.5357 -3.17726,4.5932 -2.30824,7.45142 -1.03896,14.38952 3.5048,19.15788 3.39595,3.56382 7.01198,5.475079 11.36198,6.005409 2.95768,0.3606 5.28099,-0.12137 7.78692,-1.615219 z m -205.4913774,-4.3496 c 14.2005204,-1.83956 30.6873304,-3.77454 44.5750804,-5.23154 l 13.94758,-1.46327 10.397365,-7.94881 c 14.47312,-11.06473 24.46213,-18.89285 25.13521,-19.6978 0.51411,-0.61482 0.49337,-0.65808 -0.2125,-0.44305 -0.43023,0.13109 -6.96664,1.74523 -14.52535,3.58698 -21.192665,5.16388 -33.236115,8.61218 -50.920945,14.57979 -19.6922704,6.64502 -31.6996004,11.93365 -35.8569804,15.79325 -2.2180296,2.05914 -2.2869896,2.17561 -1.17798,1.98906 0.64789,-0.109 4.53522,-0.63305 8.63852,-1.16461 z M 166.84723,85.903441 c 0.67057,-0.66555 0.58294,-2.4835 -0.155,-3.21591 -1.70116,-1.68841 -5.06832,-2.51079 -16.10852,-3.93422 -10.55298,-1.36062 -17.82402,-2.72954 -20.50277,-3.86004 -2.57274,-1.08578 -3.08532,-0.86733 -3.46885,1.47838 -0.47466,2.90311 1.03965,3.43049 14.79075,5.15095 8.78862,1.09961 17.06006,2.57759 19.71056,3.52201 1.40251,0.49974 2.52372,0.78495 5.04667,1.28379 0.11873,0.0236 0.42801,-0.16775 0.68716,-0.42496 z m 10.08719,-60.1367 c 6.50128,-2.27657 12.79089,-8.41133 16.33908,-15.93682 2.12829,-4.51399 3.12807,-9.48484005 3.12621,-15.54357 -0.002,-6.0345 -0.27825,-7.41424 -2.31911,-11.57679 -2.71039,-5.52812 -7.8066,-9.41109 -14.08441,-10.73136 -6.496,-1.36618 -9.7756,-0.26391 -16.45359,5.53 -4.67795,4.05865 -8.47937,10.46363 -10.44601,17.60044 -0.67307,2.44254 -0.83083,4.17724995 -0.85993,9.45654 l -0.0356,6.46528 1.86816,3.7367 c 2.85121,5.70302 6.78851,9.57091 11.39862,11.19774 3.11603,1.09959 8.00168,1.01517 11.46664,-0.19816 z m -9.65175,-2.87935 c -5.94044,-1.88638 -10.77179,-7.75538 -12.15365,-14.76398 -0.70311,-3.56606 -0.29143,-10.86518 0.80713,-14.31041 3.68594,-11.55969 11.46705,-18.30346 21.0081,-18.20741 7.60194,0.0766 12.81135,5.08514 15.09648,14.51457 1.22299,5.04662 1.42407,9.05550995 0.63154,12.59107 -3.19081,14.23464 -14.87088,23.51636 -25.3896,20.17616 z m 11.26581,-5.82228 c 4.19314,-3.02641 8.84619,-10.08937 10.00079,-15.18042 0.68162,-3.00548 0.48559,-8.57787 -0.40209,-11.43034 -3.79589,-12.19757 -17.65487,-12.9451 -25.45326,-1.37291 -2.79695,4.15047 -3.8177,7.60375 -3.8177,12.91565 0,4.96022 0.67842,7.66219 2.64704,10.54262 2.73711,4.00484 6.11609,5.5973 11.92064,5.61797 3.31276,0.0118 3.68482,-0.0679 5.10458,-1.09257 z"
       style="fill:#000000;stroke-width:0.39118651" />
  </g>
</svg>
